<svg width="125" height="36" viewBox="0 0 125 36" fill="none" xmlns="http://www.w3.org/2000/svg">
<path d="M30.5312 9.65137H33.2789V15.4217H39.3472V9.65137H42.0949V24.1915H39.3472V18.0759H33.2789V24.1915H30.5312V9.65137Z" fill="#F7B990"/>
<path d="M52.169 23.1531C51.9167 23.3608 51.6655 23.5684 51.3669 23.7306C50.8403 24.0304 50.1077 24.3081 49.1922 24.3081C46.5591 24.3081 44.2686 22.0238 44.2686 18.8843C44.2686 15.7459 46.5579 13.4604 49.1922 13.4604C50.1077 13.4604 50.8403 13.7603 51.3669 14.0379C51.6644 14.2001 51.9167 14.4078 52.169 14.6154L52.6274 13.5771H54.573V24.1938H52.169V23.1531ZM52.169 18.8843C52.169 17.1296 51.0243 15.9991 49.5359 15.9991C48.0475 15.9991 46.9028 17.1296 46.9028 18.8843C46.9028 20.6389 48.0475 21.7694 49.5359 21.7694C51.0232 21.7683 52.169 20.6378 52.169 18.8843Z" fill="#F7B990"/>
<path d="M81.8195 9.65137H84.2234L90.6343 19.1142V9.65137H93.382V24.1915H90.978L84.5671 14.7287V24.1915H81.8195V9.65137Z" fill="#F7B990"/>
<path d="M106.09 18.8843C106.09 21.8849 103.663 24.3081 100.824 24.3081C97.9849 24.3081 95.5579 21.8849 95.5579 18.8843C95.5579 15.8836 97.9849 13.4604 100.824 13.4604C103.663 13.4604 106.09 15.8836 106.09 18.8843ZM98.191 18.8843C98.191 20.6389 99.3356 21.7694 100.824 21.7694C102.312 21.7694 103.457 20.6389 103.457 18.8843C103.457 17.1296 102.312 15.9991 100.824 15.9991C99.3356 15.9991 98.191 17.1296 98.191 18.8843Z" fill="#F7B990"/>
<path d="M106.891 13.5747H109.524L111.586 20.3834L113.76 13.5747H115.363L117.539 20.3834L119.6 13.5747H122.233L118.799 24.1914H116.509L114.564 17.8447L112.616 24.1925H110.326L106.891 13.5747Z" fill="#F7B990"/>
<path d="M74.4918 13.5059C74.3529 13.5059 74.2175 13.5105 74.0833 13.5234C74.0242 13.528 73.9652 13.5339 73.9062 13.542C73.7951 13.5537 73.6828 13.5712 73.5752 13.5934C73.5358 13.6004 73.4988 13.6074 73.4617 13.6155C73.4606 13.6155 73.4571 13.6155 73.4548 13.6167C73.3495 13.6389 73.2453 13.6645 73.1423 13.6949C73.081 13.7124 73.0208 13.731 72.9594 13.7509C72.8981 13.7719 72.8391 13.7917 72.7789 13.8139C72.721 13.836 72.662 13.8582 72.6053 13.8815C72.4097 13.962 72.2198 14.0542 72.0393 14.1592C71.9999 14.1814 71.9629 14.2035 71.9259 14.2257C71.8784 14.2549 71.831 14.284 71.7858 14.3144C71.7268 14.3517 71.6678 14.3914 71.6099 14.4334C70.2418 15.4064 69.3425 16.7807 69.3425 18.9204V27.8384L73.3356 24.1972L73.3367 24.196C73.4178 24.2147 73.4988 24.2334 73.5821 24.2485C73.5995 24.252 73.618 24.2555 73.6365 24.259C73.7731 24.2824 73.9108 24.3022 74.0509 24.3139C74.0937 24.3174 74.1365 24.3209 74.1793 24.3244C74.2823 24.3314 74.3888 24.3349 74.4942 24.3349C74.5613 24.3349 74.6296 24.3337 74.6955 24.3302C74.7164 24.3302 74.7384 24.3302 74.7604 24.329C74.8229 24.3255 74.8854 24.3209 74.9467 24.315C74.9606 24.3139 74.9722 24.3139 74.9837 24.3115C75.0578 24.3034 75.1307 24.294 75.2036 24.2847C75.2708 24.2742 75.3391 24.2625 75.4062 24.2509C75.4166 24.2497 75.4247 24.2474 75.4328 24.2462C75.5844 24.217 75.7349 24.1797 75.8819 24.1377C75.9548 24.1155 76.0277 24.0922 76.0995 24.0677C76.1724 24.042 76.243 24.0152 76.3136 23.9872C76.3217 23.986 76.3286 23.9837 76.3344 23.9802C76.3969 23.9545 76.456 23.9312 76.515 23.9032C76.5786 23.874 76.6423 23.8449 76.7048 23.8145C76.8101 23.762 76.9108 23.706 77.0104 23.6454C77.059 23.6162 77.1087 23.587 77.1562 23.5567C77.1597 23.5567 77.1608 23.5555 77.1643 23.552C77.2094 23.5217 77.2557 23.4925 77.2997 23.4622C77.4398 23.3665 77.5775 23.2627 77.7083 23.1519C77.8819 23.0049 78.0485 22.8474 78.2036 22.677C78.2812 22.5919 78.3553 22.5044 78.4282 22.4145C78.4641 22.3702 78.4988 22.3247 78.5347 22.278C78.5705 22.2325 78.6041 22.1859 78.6365 22.138C78.6724 22.0902 78.7036 22.0447 78.7349 21.9945C78.831 21.8475 78.9212 21.6982 79.0023 21.543C79.0254 21.4975 79.0497 21.4532 79.0717 21.4065C79.1296 21.2945 79.1793 21.1802 79.2268 21.0624C79.2488 21.0075 79.2708 20.9539 79.2904 20.8967C79.309 20.8489 79.3263 20.801 79.3425 20.7532C79.3645 20.6879 79.3865 20.6237 79.405 20.5572C79.4154 20.5245 79.4259 20.4907 79.434 20.4569C79.4479 20.4137 79.4594 20.3705 79.4698 20.3274C79.5138 20.1582 79.5497 19.9867 79.5752 19.8129C79.5821 19.7755 79.5891 19.7359 79.5925 19.6974C79.596 19.6892 79.5972 19.6787 79.5972 19.6682C79.6053 19.6052 79.6145 19.5399 79.6191 19.4757C79.6272 19.3917 79.6342 19.3089 79.6377 19.2249C79.6388 19.2062 79.6388 19.1875 79.6388 19.1689C79.6435 19.0872 79.6458 19.0055 79.6458 18.9215C79.6446 15.9302 77.3367 13.5059 74.4918 13.5059ZM74.493 21.9105C73.0185 21.9105 71.8842 20.7905 71.8842 19.0522C71.8842 17.315 73.0185 16.195 74.493 16.195C75.9675 16.195 77.1018 17.315 77.1018 19.0522C77.1006 20.7905 75.9664 21.9105 74.493 21.9105Z" fill="#F7B990"/>
<path d="M62.2431 13.5059C62.1042 13.5059 61.9687 13.5105 61.8345 13.5234C61.7755 13.528 61.7164 13.5339 61.6574 13.542C61.5463 13.5537 61.434 13.5712 61.3264 13.5934C61.287 13.6004 61.25 13.6074 61.213 13.6155C61.2118 13.6155 61.2083 13.6155 61.206 13.6167C61.1007 13.6389 60.9965 13.6645 60.8935 13.6949C60.8322 13.7124 60.772 13.731 60.7106 13.7509C60.6493 13.7719 60.5903 13.7917 60.5301 13.8139C60.4722 13.836 60.4132 13.8582 60.3565 13.8815C60.1609 13.962 59.9711 14.0542 59.7905 14.1592C59.7512 14.1814 59.7141 14.2035 59.6771 14.2257C59.6296 14.2549 59.5822 14.284 59.537 14.3144C59.478 14.3517 59.419 14.3914 59.3611 14.4334C57.9931 15.4064 57.0938 16.7807 57.0938 18.9204V27.8384L61.0868 24.1972L61.088 24.196C61.169 24.2147 61.25 24.2334 61.3333 24.2485C61.3507 24.252 61.3692 24.2555 61.3877 24.259C61.5243 24.2824 61.662 24.3022 61.8021 24.3139C61.8449 24.3174 61.8877 24.3209 61.9306 24.3244C62.0336 24.3314 62.14 24.3349 62.2454 24.3349C62.3125 24.3349 62.3808 24.3337 62.4468 24.3302C62.4676 24.3302 62.4896 24.3302 62.5116 24.329C62.5741 24.3255 62.6366 24.3209 62.6979 24.315C62.7118 24.3139 62.7234 24.3139 62.735 24.3115C62.809 24.3034 62.8819 24.294 62.9549 24.2847C63.022 24.2742 63.0903 24.2625 63.1574 24.2509C63.1678 24.2497 63.1759 24.2474 63.184 24.2462C63.3356 24.217 63.4861 24.1797 63.6331 24.1377C63.706 24.1155 63.7789 24.0922 63.8507 24.0677C63.9236 24.042 63.9942 24.0152 64.0648 23.9872C64.0729 23.986 64.0799 23.9837 64.0856 23.9802C64.1481 23.9545 64.2072 23.9312 64.2662 23.9032C64.3299 23.874 64.3935 23.8449 64.456 23.8145C64.5613 23.762 64.662 23.706 64.7616 23.6454C64.8102 23.6162 64.86 23.587 64.9074 23.5567C64.9109 23.5567 64.912 23.5555 64.9155 23.552C64.9606 23.5217 65.0069 23.4925 65.0509 23.4622C65.191 23.3665 65.3287 23.2627 65.4595 23.1519C65.6331 23.0049 65.7998 22.8474 65.9549 22.677C66.0324 22.5919 66.1065 22.5044 66.1794 22.4145C66.2153 22.3702 66.25 22.3247 66.2859 22.278C66.3218 22.2325 66.3553 22.1859 66.3877 22.138C66.4236 22.0902 66.4549 22.0447 66.4861 21.9945C66.5822 21.8475 66.6725 21.6982 66.7535 21.543C66.7766 21.4975 66.8009 21.4532 66.8229 21.4065C66.8808 21.2945 66.9306 21.1802 66.978 21.0624C67 21.0075 67.022 20.9539 67.0417 20.8967C67.0602 20.8489 67.0775 20.801 67.0938 20.7532C67.1157 20.6879 67.1377 20.6237 67.1562 20.5572C67.1667 20.5245 67.1771 20.4907 67.1852 20.4569C67.1991 20.4137 67.2106 20.3705 67.2211 20.3274C67.265 20.1582 67.3009 19.9867 67.3264 19.8129C67.3333 19.7755 67.3403 19.7359 67.3437 19.6974C67.3472 19.6892 67.3484 19.6787 67.3484 19.6682C67.3565 19.6052 67.3657 19.5399 67.3704 19.4757C67.3785 19.3917 67.3854 19.3089 67.3889 19.2249C67.39 19.2062 67.39 19.1875 67.39 19.1689C67.3947 19.0872 67.397 19.0055 67.397 18.9215C67.3947 15.9302 65.088 13.5059 62.2431 13.5059ZM62.2431 21.9105C60.7685 21.9105 59.6343 20.7905 59.6343 19.0522C59.6343 17.315 60.7685 16.195 62.2431 16.195C63.7176 16.195 64.8519 17.315 64.8519 19.0522C64.8519 20.7905 63.7176 21.9105 62.2431 21.9105Z" fill="#F7B990"/>
<path d="M13.9282 2.47168C13.6273 2.47168 13.3345 2.48218 13.0416 2.50901C12.9132 2.52068 12.7847 2.53118 12.6574 2.54985C12.4155 2.57551 12.1736 2.61285 11.9398 2.66068C11.8553 2.67585 11.7754 2.68985 11.6944 2.70851C11.6909 2.70851 11.684 2.70851 11.6794 2.71201C11.4525 2.75985 11.2257 2.81585 11.0023 2.88235C10.8703 2.91968 10.7384 2.95935 10.6065 3.00368C10.4745 3.04801 10.346 3.09235 10.2141 3.14018C10.0891 3.18801 9.96178 3.23585 9.83678 3.28835C9.41201 3.46218 9.00113 3.66168 8.60993 3.89035C8.52544 3.93818 8.44557 3.98601 8.36456 4.03385C8.26155 4.09685 8.1597 4.15985 8.06016 4.22635C7.93169 4.30801 7.80321 4.39201 7.67937 4.48535C4.71641 6.59351 2.76733 9.57085 2.76733 14.206V33.5283L11.419 25.6382L11.4224 25.6347C11.5984 25.6755 11.7743 25.7163 11.9537 25.749C11.9907 25.756 12.0301 25.7642 12.0706 25.7712C12.3669 25.8225 12.6643 25.8633 12.9676 25.889C13.059 25.896 13.1539 25.9042 13.2453 25.9112C13.4687 25.9263 13.699 25.9333 13.9271 25.9333C14.074 25.9333 14.2199 25.9298 14.3634 25.9217C14.4074 25.9217 14.4548 25.9217 14.5023 25.9182C14.6377 25.9112 14.7731 25.8995 14.9051 25.889C14.934 25.8855 14.9595 25.8855 14.9861 25.882C15.147 25.8633 15.3044 25.8447 15.4618 25.8225C15.6088 25.8003 15.7546 25.7747 15.9016 25.749C15.9236 25.7455 15.9421 25.742 15.9606 25.7373C16.2905 25.6743 16.6157 25.5938 16.9352 25.5005C17.0926 25.4527 17.25 25.4013 17.4074 25.3488C17.5648 25.294 17.7187 25.2345 17.8727 25.175C17.8912 25.1715 17.9051 25.168 17.9166 25.1598C18.0521 25.105 18.1805 25.0525 18.309 24.9942C18.4479 24.9312 18.5833 24.8682 18.7187 24.8017C18.9456 24.6873 19.1655 24.5648 19.3819 24.4365C19.4884 24.3735 19.5949 24.3105 19.6967 24.244C19.7037 24.244 19.7071 24.2405 19.7153 24.2335C19.8136 24.167 19.9132 24.104 20.0081 24.0375C20.3125 23.831 20.6088 23.6058 20.8946 23.3655C21.272 23.0482 21.6308 22.7052 21.9676 22.3353C22.1365 22.151 22.2974 21.962 22.4548 21.7672C22.5312 21.6715 22.6088 21.5712 22.6852 21.472C22.7615 21.3728 22.8356 21.2725 22.9051 21.1687C22.9815 21.0648 23.0521 20.9657 23.118 20.8583C23.3264 20.541 23.5208 20.2155 23.6967 19.8795C23.7477 19.7803 23.7997 19.6835 23.8472 19.5843C23.9722 19.3405 24.0821 19.0932 24.184 18.8388C24.2315 18.721 24.2789 18.602 24.3229 18.4807C24.3634 18.3768 24.3993 18.2742 24.4363 18.1703C24.4838 18.0303 24.5312 17.8892 24.5717 17.7457C24.5937 17.6757 24.6157 17.6022 24.6342 17.5275C24.6632 17.4353 24.6886 17.3397 24.7106 17.2463C24.8055 16.8812 24.8831 16.5078 24.9375 16.131C24.9525 16.0493 24.9664 15.9653 24.9745 15.8802C24.9815 15.8615 24.9861 15.8393 24.9861 15.8172C25.0046 15.6807 25.0231 15.5407 25.0335 15.3995C25.0521 15.2187 25.0659 15.0378 25.074 14.857C25.0775 14.8162 25.0775 14.7753 25.0775 14.7357C25.0879 14.5583 25.0926 14.381 25.0926 14.2002C25.0926 7.72518 20.0926 2.47168 13.9282 2.47168ZM16.0648 9.48568C16.0648 8.99801 16.4571 8.60251 16.9409 8.60251H17.706C18.1898 8.60251 18.5821 8.99801 18.5821 9.48568V11.4818C18.5821 11.9695 18.1898 12.365 17.706 12.365H16.9409C16.4571 12.365 16.0648 11.9695 16.0648 11.4818V9.48568ZM9.79858 9.48568C9.79858 8.99801 10.1909 8.60251 10.6747 8.60251H11.4398C11.9236 8.60251 12.3159 8.99801 12.3159 9.48568V11.4818C12.3159 11.9695 11.9236 12.365 11.4398 12.365H10.6747C10.1909 12.365 9.79858 11.9695 9.79858 11.4818V9.48568ZM14.1898 20.8373C11.4224 20.8373 8.42706 18.2438 8.42706 16.0797C8.42706 13.4523 11.0069 16.2547 14.1898 16.2547C17.3727 16.2547 19.9525 13.4512 19.9525 16.0797C19.9525 18.266 17.324 20.8373 14.1898 20.8373Z" fill="#F7B990"/>
</svg>
